<svg xmlns="http://www.w3.org/2000/svg" version="1.1" xmlns:xlink="http://www.w3.org/1999/xlink" xmlns:svgjs="http://svgjs.dev/svgjs" viewBox="0 0 1422 800" opacity="0.2"><g stroke-width="1.5" stroke="hsl(0, 0%, 100%)" fill="none" stroke-linecap="butt"><line x1="0" y1="0" x2="88" y2="88" opacity="0.21"></line><line x1="88" y1="0" x2="176" y2="88" opacity="0.14"></line><line x1="264" y1="0" x2="176" y2="88" opacity="0.62"></line><line x1="352" y1="0" x2="264" y2="88" opacity="0.92"></line><line x1="352" y1="0" x2="440" y2="88" opacity="0.60"></line><line x1="528" y1="0" x2="440" y2="88" opacity="0.29"></line><line x1="528" y1="0" x2="616" y2="88" opacity="0.17"></line><line x1="616" y1="0" x2="704" y2="88" opacity="0.19"></line><line x1="792" y1="0" x2="704" y2="88" opacity="0.82"></line><line x1="792" y1="0" x2="880" y2="88" opacity="0.99"></line><line x1="880" y1="0" x2="968" y2="88" opacity="0.64"></line><line x1="1056" y1="0" x2="968" y2="88" opacity="0.77"></line><line x1="1144" y1="0" x2="1056" y2="88" opacity="0.33"></line><line x1="1232" y1="0" x2="1144" y2="88" opacity="0.24"></line><line x1="1320" y1="0" x2="1232" y2="88" opacity="0.59"></line><line x1="1408" y1="0" x2="1320" y2="88" opacity="0.88"></line><line x1="1408" y1="0" x2="1496" y2="88" opacity="0.98"></line><line x1="88" y1="88" x2="0" y2="176" opacity="0.96"></line><line x1="176" y1="88" x2="88" y2="176" opacity="0.26"></line><line x1="264" y1="88" x2="176" y2="176" opacity="0.88"></line><line x1="264" y1="88" x2="352" y2="176" opacity="0.70"></line><line x1="352" y1="88" x2="440" y2="176" opacity="0.31"></line><line x1="440" y1="88" x2="528" y2="176" opacity="0.18"></line><line x1="616" y1="88" x2="528" y2="176" opacity="0.73"></line><line x1="704" y1="88" x2="616" y2="176" opacity="0.62"></line><line x1="704" y1="88" x2="792" y2="176" opacity="0.90"></line><line x1="792" y1="88" x2="880" y2="176" opacity="0.49"></line><line x1="968" y1="88" x2="880" y2="176" opacity="0.81"></line><line x1="1056" y1="88" x2="968" y2="176" opacity="0.23"></line><line x1="1144" y1="88" x2="1056" y2="176" opacity="0.81"></line><line x1="1232" y1="88" x2="1144" y2="176" opacity="0.95"></line><line x1="1232" y1="88" x2="1320" y2="176" opacity="0.58"></line><line x1="1408" y1="88" x2="1320" y2="176" opacity="0.71"></line><line x1="1496" y1="88" x2="1408" y2="176" opacity="0.36"></line><line x1="0" y1="176" x2="88" y2="264" opacity="0.62"></line><line x1="88" y1="176" x2="176" y2="264" opacity="0.39"></line><line x1="176" y1="176" x2="264" y2="264" opacity="0.41"></line><line x1="352" y1="176" x2="264" y2="264" opacity="0.59"></line><line x1="440" y1="176" x2="352" y2="264" opacity="0.10"></line><line x1="440" y1="176" x2="528" y2="264" opacity="0.93"></line><line x1="616" y1="176" x2="528" y2="264" opacity="0.71"></line><line x1="704" y1="176" x2="616" y2="264" opacity="0.41"></line><line x1="792" y1="176" x2="704" y2="264" opacity="0.26"></line><line x1="792" y1="176" x2="880" y2="264" opacity="0.34"></line><line x1="880" y1="176" x2="968" y2="264" opacity="0.82"></line><line x1="968" y1="176" x2="1056" y2="264" opacity="0.59"></line><line x1="1144" y1="176" x2="1056" y2="264" opacity="0.23"></line><line x1="1144" y1="176" x2="1232" y2="264" opacity="0.83"></line><line x1="1320" y1="176" x2="1232" y2="264" opacity="0.69"></line><line x1="1408" y1="176" x2="1320" y2="264" opacity="0.78"></line><line x1="1408" y1="176" x2="1496" y2="264" opacity="0.54"></line><line x1="88" y1="264" x2="0" y2="352" opacity="0.34"></line><line x1="176" y1="264" x2="88" y2="352" opacity="0.42"></line><line x1="264" y1="264" x2="176" y2="352" opacity="0.49"></line><line x1="352" y1="264" x2="264" y2="352" opacity="0.08"></line><line x1="440" y1="264" x2="352" y2="352" opacity="0.27"></line><line x1="528" y1="264" x2="440" y2="352" opacity="0.43"></line><line x1="528" y1="264" x2="616" y2="352" opacity="0.81"></line><line x1="704" y1="264" x2="616" y2="352" opacity="0.12"></line><line x1="704" y1="264" x2="792" y2="352" opacity="0.77"></line><line x1="880" y1="264" x2="792" y2="352" opacity="0.79"></line><line x1="968" y1="264" x2="880" y2="352" opacity="0.19"></line><line x1="1056" y1="264" x2="968" y2="352" opacity="0.20"></line><line x1="1144" y1="264" x2="1056" y2="352" opacity="0.48"></line><line x1="1144" y1="264" x2="1232" y2="352" opacity="0.78"></line><line x1="1232" y1="264" x2="1320" y2="352" opacity="0.63"></line><line x1="1320" y1="264" x2="1408" y2="352" opacity="0.47"></line><line x1="1408" y1="264" x2="1496" y2="352" opacity="0.68"></line><line x1="88" y1="352" x2="0" y2="440" opacity="0.19"></line><line x1="88" y1="352" x2="176" y2="440" opacity="0.65"></line><line x1="264" y1="352" x2="176" y2="440" opacity="0.56"></line><line x1="352" y1="352" x2="264" y2="440" opacity="0.44"></line><line x1="352" y1="352" x2="440" y2="440" opacity="0.83"></line><line x1="440" y1="352" x2="528" y2="440" opacity="0.28"></line><line x1="528" y1="352" x2="616" y2="440" opacity="0.78"></line><line x1="616" y1="352" x2="704" y2="440" opacity="0.81"></line><line x1="792" y1="352" x2="704" y2="440" opacity="0.36"></line><line x1="792" y1="352" x2="880" y2="440" opacity="0.97"></line><line x1="968" y1="352" x2="880" y2="440" opacity="0.09"></line><line x1="1056" y1="352" x2="968" y2="440" opacity="0.59"></line><line x1="1056" y1="352" x2="1144" y2="440" opacity="0.84"></line><line x1="1144" y1="352" x2="1232" y2="440" opacity="0.41"></line><line x1="1232" y1="352" x2="1320" y2="440" opacity="0.09"></line><line x1="1408" y1="352" x2="1320" y2="440" opacity="0.32"></line><line x1="1408" y1="352" x2="1496" y2="440" opacity="0.52"></line><line x1="88" y1="440" x2="0" y2="528" opacity="0.28"></line><line x1="88" y1="440" x2="176" y2="528" opacity="0.69"></line><line x1="264" y1="440" x2="176" y2="528" opacity="0.91"></line><line x1="264" y1="440" x2="352" y2="528" opacity="0.99"></line><line x1="440" y1="440" x2="352" y2="528" opacity="0.59"></line><line x1="528" y1="440" x2="440" y2="528" opacity="0.96"></line><line x1="528" y1="440" x2="616" y2="528" opacity="0.53"></line><line x1="616" y1="440" x2="704" y2="528" opacity="0.50"></line><line x1="704" y1="440" x2="792" y2="528" opacity="0.70"></line><line x1="880" y1="440" x2="792" y2="528" opacity="0.84"></line><line x1="968" y1="440" x2="880" y2="528" opacity="0.23"></line><line x1="1056" y1="440" x2="968" y2="528" opacity="0.41"></line><line x1="1056" y1="440" x2="1144" y2="528" opacity="0.37"></line><line x1="1144" y1="440" x2="1232" y2="528" opacity="0.59"></line><line x1="1320" y1="440" x2="1232" y2="528" opacity="0.85"></line><line x1="1320" y1="440" x2="1408" y2="528" opacity="0.27"></line><line x1="1408" y1="440" x2="1496" y2="528" opacity="0.83"></line><line x1="0" y1="528" x2="88" y2="616" opacity="0.44"></line><line x1="176" y1="528" x2="88" y2="616" opacity="0.63"></line><line x1="176" y1="528" x2="264" y2="616" opacity="0.14"></line><line x1="264" y1="528" x2="352" y2="616" opacity="0.60"></line><line x1="352" y1="528" x2="440" y2="616" opacity="0.11"></line><line x1="528" y1="528" x2="440" y2="616" opacity="0.39"></line><line x1="528" y1="528" x2="616" y2="616" opacity="0.41"></line><line x1="616" y1="528" x2="704" y2="616" opacity="0.29"></line><line x1="792" y1="528" x2="704" y2="616" opacity="0.48"></line><line x1="792" y1="528" x2="880" y2="616" opacity="0.49"></line><line x1="880" y1="528" x2="968" y2="616" opacity="0.59"></line><line x1="1056" y1="528" x2="968" y2="616" opacity="0.38"></line><line x1="1144" y1="528" x2="1056" y2="616" opacity="0.70"></line><line x1="1232" y1="528" x2="1144" y2="616" opacity="0.52"></line><line x1="1320" y1="528" x2="1232" y2="616" opacity="0.33"></line><line x1="1408" y1="528" x2="1320" y2="616" opacity="0.81"></line><line x1="1408" y1="528" x2="1496" y2="616" opacity="0.25"></line><line x1="88" y1="616" x2="0" y2="704" opacity="0.63"></line><line x1="176" y1="616" x2="88" y2="704" opacity="0.69"></line><line x1="176" y1="616" x2="264" y2="704" opacity="0.66"></line><line x1="264" y1="616" x2="352" y2="704" opacity="0.77"></line><line x1="352" y1="616" x2="440" y2="704" opacity="0.96"></line><line x1="528" y1="616" x2="440" y2="704" opacity="0.91"></line><line x1="616" y1="616" x2="528" y2="704" opacity="0.81"></line><line x1="616" y1="616" x2="704" y2="704" opacity="0.58"></line><line x1="704" y1="616" x2="792" y2="704" opacity="0.33"></line><line x1="792" y1="616" x2="880" y2="704" opacity="0.91"></line><line x1="880" y1="616" x2="968" y2="704" opacity="0.88"></line><line x1="968" y1="616" x2="1056" y2="704" opacity="0.07"></line><line x1="1056" y1="616" x2="1144" y2="704" opacity="0.30"></line><line x1="1232" y1="616" x2="1144" y2="704" opacity="0.85"></line><line x1="1320" y1="616" x2="1232" y2="704" opacity="0.35"></line><line x1="1320" y1="616" x2="1408" y2="704" opacity="0.21"></line><line x1="1496" y1="616" x2="1408" y2="704" opacity="0.94"></line><line x1="88" y1="704" x2="0" y2="792" opacity="0.51"></line><line x1="88" y1="704" x2="176" y2="792" opacity="0.26"></line><line x1="176" y1="704" x2="264" y2="792" opacity="0.10"></line><line x1="352" y1="704" x2="264" y2="792" opacity="0.25"></line><line x1="440" y1="704" x2="352" y2="792" opacity="0.29"></line><line x1="440" y1="704" x2="528" y2="792" opacity="0.22"></line><line x1="616" y1="704" x2="528" y2="792" opacity="0.91"></line><line x1="616" y1="704" x2="704" y2="792" opacity="0.96"></line><line x1="792" y1="704" x2="704" y2="792" opacity="0.39"></line><line x1="880" y1="704" x2="792" y2="792" opacity="0.96"></line><line x1="968" y1="704" x2="880" y2="792" opacity="0.69"></line><line x1="1056" y1="704" x2="968" y2="792" opacity="0.34"></line><line x1="1056" y1="704" x2="1144" y2="792" opacity="0.80"></line><line x1="1232" y1="704" x2="1144" y2="792" opacity="0.95"></line><line x1="1320" y1="704" x2="1232" y2="792" opacity="0.44"></line><line x1="1408" y1="704" x2="1320" y2="792" opacity="0.23"></line><line x1="1408" y1="704" x2="1496" y2="792" opacity="0.99"></line><line x1="88" y1="792" x2="0" y2="880" opacity="0.80"></line><line x1="88" y1="792" x2="176" y2="880" opacity="0.52"></line><line x1="176" y1="792" x2="264" y2="880" opacity="0.43"></line><line x1="264" y1="792" x2="352" y2="880" opacity="0.62"></line><line x1="440" y1="792" x2="352" y2="880" opacity="0.84"></line><line x1="528" y1="792" x2="440" y2="880" opacity="0.93"></line><line x1="528" y1="792" x2="616" y2="880" opacity="0.99"></line><line x1="616" y1="792" x2="704" y2="880" opacity="0.75"></line><line x1="704" y1="792" x2="792" y2="880" opacity="0.58"></line><line x1="792" y1="792" x2="880" y2="880" opacity="0.62"></line><line x1="968" y1="792" x2="880" y2="880" opacity="0.08"></line><line x1="1056" y1="792" x2="968" y2="880" opacity="0.96"></line><line x1="1144" y1="792" x2="1056" y2="880" opacity="0.12"></line><line x1="1232" y1="792" x2="1144" y2="880" opacity="0.79"></line><line x1="1232" y1="792" x2="1320" y2="880" opacity="0.40"></line><line x1="1408" y1="792" x2="1320" y2="880" opacity="0.22"></line><line x1="1496" y1="792" x2="1408" y2="880" opacity="0.98"></line></g></svg>