<svg xmlns="http://www.w3.org/2000/svg" version="1.1" xmlns:xlink="http://www.w3.org/1999/xlink" xmlns:svgjs="http://svgjs.dev/svgjs" viewBox="0 0 800 800" opacity="0.39"><defs><linearGradient x1="50%" y1="0%" x2="50%" y2="100%" id="uundulate-grad"><stop stop-color="hsl(265, 55%, 30%)" stop-opacity="1" offset="45%"></stop><stop stop-color="hsl(265, 55%, 60%)" stop-opacity="1" offset="100%"></stop></linearGradient></defs><g stroke-width="1" stroke="url(#uundulate-grad)" fill="none"><path d="M678.9570508468043 247.79891892539825C711.8596353503389 330.48559401841 697.9368094137398 500.37552310639626 652.0109643164878 576.6020477356404C606.085119219236 652.8285723648846 572.2781912841917 616.3065402058407 458.51299437999614 613.6862371457706C344.74779747580067 611.0659340857006 133.12773658612252 632.3544024910344 105.93801917634926 564.0245930473045C78.74830176657599 495.69478360357436 247.1397384124228 365.76952384880747 328.0023508130838 285.7031518158657C408.8649632137449 205.63677978292395 420.96299619249726 187.60272247469788 494.07855869952243 179.70600728918373C567.1941212065476 171.80929210366958 646.0544663432698 165.11224383238647 678.9570508468043 247.79891892539825C711.8596353503389 330.48559401841 697.9368094137398 500.37552310639626 652.0109643164878 576.6020477356404 "></path><path d="M670.5038078065248 252.41105070275364C702.4093442948007 332.59206897476497 688.9084221744621 497.33381839341837 644.3742693528845 571.2504483369279C599.840116531307 645.1670782804374 567.0576409579307 609.7517743686371 456.7398742629532 607.2108744315997C346.4221075679757 604.669974494562 141.21477579616663 625.3133377967038 114.8489892169926 559.0541286391474C88.48320263781852 492.794919481591 251.77186847621533 366.8067888103019 330.184098682917 289.1666704753281C408.5963288896187 211.52655214035428 420.3277548084088 194.038981417226 491.2276942091605 186.38156063127286C562.1276336099121 178.7241398453197 638.5982713182489 172.2300324307422 670.5038078065248 252.41105070275364C702.4093442948007 332.59206897476497 688.9084221744621 497.33381839341837 644.3742693528845 571.2504483369279 "></path><path d="M662.0505647662452 257.0232129976871C692.9590532392625 334.6985744486982 679.8800349351845 494.2921441980186 636.7375743892812 565.8988794557933C593.5951138433779 637.5056147135683 561.8370906316698 603.1970390490118 454.9667541459103 600.7355422350066C348.0964176601508 598.2740454210013 149.30181500621075 618.2723036199513 123.7599592576359 554.0836947485686C98.218103509061 489.8950858771859 256.40399854000793 367.84408428937445 332.3658465527501 292.6302196523686C408.3276945654924 217.41635501536274 419.6925134243204 200.4752708773322 488.3768297187985 193.05714449094012C557.0611460132766 185.63901810454803 631.142076293228 179.34785154667605 662.0505647662452 257.0232129976871C692.9590532392625 334.6985744486982 679.8800349351845 494.2921441980186 636.7375743892812 565.8988794557933 "></path><path d="M653.5973217259657 261.6353600338315C683.5087621837242 336.80506466384224 670.8516476959069 491.2504547438298 629.1008794256779 560.5472953158699C587.350111155449 629.8441358879102 556.6165403054088 596.6422884705974 453.19363402886734 594.2601947796246C349.7707277523258 591.8781010886519 157.38885421625486 611.2312541844099 132.6709292982792 549.1132455992008C107.95300438030347 486.9952370139915 261.03612860380053 368.88136450965806 334.5475944225833 296.0937535706201C408.05906024136607 223.30614263158213 419.05727204023196 206.9115450786494 485.5259652284366 199.7327130918183C551.9946584166412 192.55388110498723 623.6858812682069 186.4656554038208 653.5973217259657 261.6353600338315C683.5087621837242 336.80506466384224 670.8516476959069 491.2504547438298 629.1008794256779 560.5472953158699 "></path><path d="M645.144078685686 266.24753758755406C674.058471128186 338.9115853965644 661.8232604566292 488.20879580721896 621.4641844620746 555.1957416935245C581.1051084675199 622.1826875798299 551.3959899791478 590.087568409761 451.4205139118243 587.7848778418207C351.4450378445009 585.4821872738804 165.47589342629897 604.1902352664465 141.58189933892248 544.1428269674109C117.687905251546 484.0954186683755 265.66825866759314 369.9186752475197 336.7293422924165 299.5573180064497C407.7904259172399 229.19596076537965 418.42203065614353 213.34784979754465 482.67510073807466 206.40831221027463C546.9281708200058 199.4687746230046 616.229686243186 193.5834897785437 645.144078685686 266.24753758755406C674.058471128186 338.9115853965644 661.8232604566292 488.20879580721896 621.4641844620746 555.1957416935245 "></path><path d="M636.6908509041955 270.85968462369846C664.608195331437 341.01807561170847 652.7948884761406 485.16710635303014 613.8275047572603 549.844157553601C574.8601210383799 614.5212087541718 546.1754549116757 583.5328178313466 449.6474090535704 581.3095303864387C353.119363195465 579.0862429415308 173.56294789513214 597.1491858309049 150.49288463835484 539.1723778180431C127.42282138157753 481.1955698051812 270.3004039901748 370.9559554678033 338.91110542103866 303.0208519247011C407.5218068519026 235.08574838159905 417.78680453084417 219.7841239988618 479.8242515065017 213.08388081115282C541.8616984821595 206.3836376234438 608.7735064769541 200.7012936356885 636.6908509041955 270.85968462369846C664.608195331437 341.01807561170847 652.7948884761406 485.16710635303014 613.8275047572603 549.844157553601 "></path><path d="M628.2376078639159 275.4718316598429C655.1579042758988 343.1245658268525 643.7665012368631 482.1254168988413 606.1908097936571 544.4925734136775C568.615118350451 606.8597299285136 540.9549045854146 576.9780672529322 447.87428893652736 574.8341829310567C354.7936732876401 572.6902986091811 181.64998710517625 590.1081363953634 159.40385467899813 534.2019286686752C137.15772225282 478.29572094198693 274.9325340539674 371.99323568808677 341.09285329087186 306.48438584295263C407.2531725277763 240.97553599781844 417.1515631467555 226.22039820017898 476.9733870161398 219.75944941203102C536.7952108855239 213.29850062388306 601.3173114519332 207.81909749283324 628.2376078639159 275.4718316598429C655.1579042758988 343.1245658268525 643.7665012368631 482.1254168988413 606.1908097936571 544.4925734136775 "></path><path d="M619.7843495648472 280.0840092135654C645.7075979615715 345.2310865595747 634.7380987387963 479.0837579622305 598.5540995712647 539.1410197913319C562.3701004037327 599.1982816204336 535.7343390003646 570.4233471920959 446.10115356069537 568.3588659932527C356.46796812102616 566.2943847944098 189.7370110564313 583.0671174774 168.31480946085236 529.2315100368854C146.89260786527342 475.3959025963709 279.5646488589709 373.0305464259484 343.274585901916 309.9479502787822C406.98452294486106 246.86535413161596 416.516306503878 232.65670291907423 474.1225072669888 226.43504853048734C531.7287080300995 220.21339414190044 593.861101168123 214.93693186755615 619.7843495648472 280.0840092135654C645.7075979615715 345.2310865595747 634.7380987387963 479.0837579622305 598.5540995712647 539.1410197913319 "></path><path d="M611.3311217833568 284.69612573213175C636.2573221648224 347.3375462571406 625.7097267583079 476.04203799046354 590.9174198664502 533.7894051338303C556.1251129745929 591.5367722771972 530.5138039328926 563.8685660961032 444.3280487024415 561.8834880202926C358.14229347199034 559.898409944482 197.82406552526447 576.0260375242804 177.2257947602847 524.2610303699394C156.62752399530495 472.4960232155985 284.19679418155255 374.06779612865375 345.45634903053815 313.4114536794555C406.7159038795238 252.75511123025723 415.88108037857864 239.0929466028133 471.27165803541584 233.1105866137874C526.662235692253 227.1282266247615 586.4049214018912 222.05470520712282 611.3311217833568 284.69612573213175C636.2573221648224 347.3375462571406 625.7097267583079 476.04203799046354 590.9174198664502 533.7894051338303 "></path><path d="M602.8778787430772 289.30830328585427C626.8070311092841 349.44406698986285 616.6813395190302 473.00037905385284 583.2807249028469 528.437851511485C549.8801102866639 583.8753239691171 525.2932536066317 557.3138460352669 442.55492858539856 555.4081710824887C359.81660356416535 553.5024961297105 205.91110473530858 568.9850186063169 186.136764800928 519.2906117381497C166.36242486654749 469.59620486998233 288.8289242453451 375.1051068665155 347.63809690037135 316.8750181152851C406.4472695553975 258.64492936405475 415.2458389944902 245.52925132170856 468.4207935450539 239.78618573224372C521.5957480956176 234.0431201427789 578.9487263768702 229.17253958184568 602.8778787430772 289.30830328585427C626.8070311092841 349.44406698986285 616.6813395190302 473.00037905385284 583.2807249028469 528.437851511485 "></path><path d="M594.4246204440085 293.9204503219987C617.3567247949568 351.5505572050069 607.6529370209635 469.958689599664 575.6440146804546 523.0862673715615C543.6350923399457 576.2138451434589 520.0726880215816 550.7590954568525 440.78179320956644 548.9328236271067C361.4908983975514 547.1065517973609 213.99812868656363 561.9439691707755 195.0477195827823 514.3201625887817C176.0973104790009 466.69635600678816 293.46103905034863 376.14238708679903 349.81982951141543 320.3385520335366C406.17861997248224 264.53471698027414 414.6105823516127 251.9655255230257 465.56991379590295 246.46175433312192C516.5292452401932 240.9579831432181 571.4925160930602 236.29034343899048 594.4246204440085 293.9204503219987C617.3567247949568 351.5505572050069 607.6529370209635 469.958689599664 575.6440146804546 523.0862673715615 "></path><path d="M585.9713926625179 298.53258209935404C607.9064489982077 353.6570321613619 598.6245650404749 466.916984886686 568.0073349756403 517.7346679728489C537.3901049108058 568.5523510590117 514.8521529541097 544.204329619649 439.00868835131257 542.4574609129356C363.1652237485155 540.7105922062224 222.0851831553968 554.9029044764447 203.95870488221465 509.3496981806247C185.83222660903243 463.7964918848047 298.0931843729303 377.1796520482935 352.00159264003764 323.802070692999C405.9100009071451 270.4244893377045 413.97535622631335 258.4017844655538 462.71906456433 253.13730767521105C511.46277290234684 247.87283088486828 564.0363363268284 243.4081320373462 585.9713926625179 298.53258209935404C607.9064489982077 353.6570321613619 598.6245650404749 466.916984886686 568.0073349756403 517.7346679728489 "></path><path d="M577.5181496222384 303.1447749118656C598.4561579426695 355.7635681528732 589.5961778011972 463.87534120886437 560.370640012037 512.3831296092925C531.1451022228767 560.8909180097206 509.6316026278487 537.6496248176018 437.23556823426964 535.9821592339208C364.8395338406906 534.3146936502399 230.17222236544092 547.8619008172705 212.86967492285794 504.3792948076241C195.56712748027496 460.89668879797773 302.7253144367229 378.2169780449442 354.18334050987085 327.26565038761765C405.6413665830188 276.31432273029105 413.3401148422248 264.83810444323814 459.8682000739682 259.81292205245643C506.39628530571144 254.78773966167466 556.5801413018073 250.52598167085813 577.5181496222384 303.1447749118656C598.4561579426695 355.7635681528732 589.5961778011972 463.87534120886437 560.370640012037 512.3831296092925 "></path><path d="M569.0648913231698 307.7569219480101C589.0058516283423 357.8700583680172 580.5677753031307 460.83365175467554 552.7339297896447 507.031545469369C524.9000842761586 553.2294391840624 504.4110370427985 531.0948742391873 435.4624328584375 529.5068117785388C366.5138286740766 527.9187493178904 238.25924631669596 540.820851381729 221.78062970471217 499.40884565825627C205.30201309272837 457.99683993478345 307.35742924172644 379.25425826522775 356.36507312091493 330.7291843058691C405.3727170001034 282.20411034651045 412.7048581993473 271.2743786445553 457.0173203248171 266.4884906533346C501.32978245028687 261.7026026621139 549.1239310179974 257.6437855280029 569.0648913231698 307.7569219480101C589.0058516283423 357.8700583680172 580.5677753031307 460.83365175467554 552.7339297896447 507.031545469369 "></path><path d="M560.6116330241011 312.36905372536546C579.5555453140149 359.9765333243722 571.539372805064 457.79194704169754 545.0972195672523 501.67994607065634C518.6550663294406 545.5679450996151 499.19047145774846 524.5401084019838 433.6892974826055 523.0314490643677C368.1881235074626 521.5227897267516 246.346270267951 533.7797866873984 230.6915844865664 494.43838125009927C215.03689870518178 455.0969758128001 311.9895440467299 380.29152322672223 358.546805731959 334.19270296533153C405.10406741718816 288.09388270394084 412.0696015564698 277.7106375870834 454.166440575666 273.16404399542375C496.2632795948623 268.61745040376405 541.6677207341874 264.76157412635865 560.6116330241011 312.36905372536546C579.5555453140149 359.9765333243722 571.539372805064 457.79194704169754 545.0972195672523 501.67994607065634 "></path><path d="M552.1584052426106 316.9812160202989C570.1052695172658 362.0830387983053 562.5110008245754 454.7502728462978 537.460539862438 496.3283771895219C512.4100789003006 537.906481532746 493.9699363902764 517.9853730823584 431.91619262435165 516.5561168677748C369.8624488584268 515.1268606531911 254.4333247367842 526.7387525106459 239.60256978599875 489.4679473595204C224.77181483521332 452.197142208395 316.6216893693116 381.3288187057948 360.7285688605812 337.65625214237207C404.8354483518509 293.9836855789493 411.43437543117034 284.14692704718965 451.31559134409315 279.839627855091C491.19680725701596 275.53232866299237 534.2115409679554 271.8793932422925 552.1584052426106 316.9812160202989C570.1052695172658 362.0830387983053 562.5110008245754 454.7502728462978 537.460539862438 496.3283771895219 "></path><path d="M543.7051316847529 321.59339357402143C560.6549479441494 364.1895595310275 553.4825830677196 451.7086139096871 529.8238143812565 490.97682356717655C506.16504569479343 530.2450332246659 488.7493555464373 511.43065302152206 430.1430419897306 510.0807999299709C371.5367284330237 508.73094683841964 262.5203334292502 519.6977335926825 248.51350930906392 484.4975287277307C234.50668518887773 449.29732386277885 321.25378891552606 382.36612944365646 362.9102862128363 341.1198165782016C404.5667835101465 299.8735037127468 410.7991035295038 290.5832317660849 448.4646963361531 286.5152269735473C486.13028914280244 282.4472221810097 526.7553154253563 278.99722761701537 543.7051316847529 321.59339357402143C560.6549479441494 364.1895595310275 553.4825830677196 451.7086139096871 529.8238143812565 490.97682356717655 "></path><path d="M535.2519344208406 326.2055406101659C551.2047026649784 366.29604974617155 544.4542416048091 448.66692445549825 522.1871651940204 485.62523942725306C499.9200887832317 522.5835543990078 483.5288509965435 504.87590244310763 428.36996764905473 503.6054524745889C373.21108430156596 502.33500250607005 270.60741841566147 512.656684157141 257.4245251260744 479.52707957836276C244.2416318364874 446.3974749995846 325.8859647556858 383.40340966394 365.09207985903663 344.5833504964531C404.29819496238747 305.7632913289662 410.16390792178254 297.01950596740204 445.6138776221584 293.1907955744255C481.06384732253423 289.36208518144895 519.2991661767026 286.11503147416016 535.2519344208406 326.2055406101659C551.2047026649784 366.29604974617155 544.4542416048091 448.66692445549825 522.1871651940204 485.62523942725306 "></path><path d="M526.7986456041938 330.8176723875212C541.754365833073 368.4025247025266 535.4258085891644 445.62521974252036 514.5504244540499 480.2736400285404C493.67504031893543 514.9220603145606 478.3082548939153 498.32113660590414 426.5968017556446 497.13008976041783C374.88534861737384 495.9390429149314 278.6944118493384 505.6156194628104 266.3354493903505 474.5566151702059C253.97648693136267 443.49761087760123 330.5180490431112 384.4406746254345 367.2737819525026 348.0468691559155C404.029514861894 311.65306368639654 409.5286207613269 303.45576490993017 442.7629673554293 299.86634891651465C475.99731394953153 296.2769329230991 511.8429253753144 293.2328200725159 526.7986456041938 330.8176723875212C541.754365833073 368.4025247025266 535.4258085891644 445.62521974252036 514.5504244540499 480.2736400285404 "></path><path d="M518.3454330814923 335.4298499412438C532.304105295113 370.50904543524877 526.3974518674648 442.5835608059096 506.9137600080246 474.92208640619504C487.4300681485845 507.2606120064804 473.08773508523245 491.76641654506784 424.82371215617974 490.65477282261395C376.559689227127 489.54312910015994 286.78148157696063 498.57460054484704 275.2464499485719 469.58619653841606C263.71141832018327 440.59779253198514 335.15020962448193 385.47798536329617 369.45556033991386 351.5104335917451C403.76091105534584 317.54288182019405 408.8934098948166 309.8920696288254 439.9121333826454 306.5419480349709C470.93085687047426 303.19182644111646 504.38676086787154 300.35065444723875 518.3454330814923 335.4298499412438C532.304105295113 370.50904543524877 526.3974518674648 442.5835608059096 506.9137600080246 474.92208640619504 "></path><path d="M509.8922053000017 340.0419969773882C522.8538294983639 372.6155356503928 517.3690798869764 439.5418713517207 499.2770803032105 469.57050226627143C481.1850807194445 499.59913318082226 467.8672000177604 485.2116659666534 423.0506072979258 484.17942536723183C378.2340145780912 483.14718476781036 294.8685360457938 491.53355110930545 284.15743524800433 464.61574738904824C273.44633445021486 437.6979436687909 339.7823549470636 386.51526558357966 371.6373234685361 354.97396750999656C403.49229199000865 323.43266943641345 408.25818376951713 316.3283438301426 437.0612841510725 313.2175166358491C465.8643845326278 310.10668944155566 496.93058110163963 307.46845830438355 509.8922053000017 340.0419969773882C522.8538294983639 372.6155356503928 517.3690798869764 439.5418713517207 499.2770803032105 469.57050226627143 "></path><path d="M501.438916483355 344.65414401353263C513.4034926664585 374.72202586553686 508.3406468713315 436.5001818975319 491.6403395632399 464.21891812634794C474.94003225514837 491.937654355164 462.64660391513223 478.656915388239 421.2774414045157 477.7040779118498C379.9082788938991 476.75124043546066 302.9555294794707 484.49250167376385 293.06835951228044 459.6452982396803C283.18118954509015 434.79809480559663 344.41443923448895 387.5525458038632 373.8190255620021 358.437501428248C403.22361188951515 329.32245705263284 407.6228966090615 322.76461803145975 434.21037388434337 319.8930852367273C460.7978511596252 317.0215524419949 489.47434030025147 314.58626216152834 501.438916483355 344.65414401353263C513.4034926664585 374.72202586553686 508.3406468713315 436.5001818975319 491.6403395632399 464.21891812634794 "></path><path d="M492.9857039606535 349.266291049677C503.95323212849837 376.82851608068097 499.31229014963196 433.458492443343 484.0036751172147 458.86733398642446C468.69506008479743 484.27617552950585 457.42608410644937 472.10216480982444 419.5043518050508 471.2287304564678C381.58261950365227 470.3552961031112 311.0425992070929 477.4514522382224 301.97936007050185 454.67484909031236C292.91612093391075 431.89824594240235 349.0465998158597 388.58982602414676 376.00080394941335 361.9010353464995C402.9550080829671 335.21224466885224 406.9876857425512 329.2008922327769 431.3595399115595 326.5686538376055C455.73139408056795 323.9364154424341 482.01817579280873 321.7040660186731 492.9857039606535 349.266291049677C503.95323212849837 376.82851608068097 499.31229014963196 433.458492443343 484.0036751172147 458.86733398642446 "></path><path d="M484.53243040279585 353.87845334461053C494.5029105553821 378.9350215546141 490.2838723927763 430.41681824794324 476.36694963603327 453.51576510529C462.45002687929025 476.61471196263665 452.2055032626102 465.54742949019914 417.7312011704297 464.75339825987487C383.25689907824926 463.95936702955066 319.1296078995589 470.41041806146995 310.890299593567 449.7044151997336C302.6509912875751 428.9984123379972 353.67869936207416 389.6271215032193 378.18252130166843 365.36458452354003C402.68634324126265 341.1020475438607 406.3524138408846 335.63718169288313 428.5086449036195 333.24423769727275C450.6648759663544 330.8512937016624 474.56195025020963 328.82188513460693 484.53243040279585 353.87845334461053C494.5029105553821 378.9350215546141 490.2838723927763 430.41681824794324 476.36694963603327 453.51576510529 "></path><path d="M476.0792026213053 358.4906003807549C485.0526347586329 381.04151176975813 481.2555004122877 427.37512879375436 468.730269931219 448.1641809653664C456.2050394501503 468.9532331369785 446.9849681951382 458.99267891178465 415.9580963121758 458.27805080449286C384.9312244292134 457.563422697201 327.21666236839206 463.3693686259284 319.8012848929994 444.73396605036567C312.3859074176067 426.098563474803 358.31084468465576 390.66440172350286 380.36428443029064 368.8281184417915C402.41772417592546 346.9918351600801 405.71718771558517 342.07345589420026 425.6577956720466 339.91980629815095C445.598403628508 337.7661567021016 467.1057704839777 335.9396889917517 476.0792026213053 358.4906003807549C485.0526347586329 381.04151176975813 481.2555004122877 427.37512879375436 468.730269931219 448.1641809653664 "></path><path d="M467.62595958102577 363.1027626756884C475.6023437030947 383.14801724369124 472.22711317301 424.3334545983546 461.09357496761567 442.812612084232C449.9600367622213 461.29176957010935 441.7644178688772 452.4379435921593 414.18497619513283 451.8027186078999C386.60553452138845 451.1674936236405 335.3037015784362 456.32833444917594 328.71225493364267 439.76353215978685C322.12080828884916 423.19872987039776 362.94297474844836 391.7016972025755 382.5460323001238 372.29166761883204C402.1490898517992 352.88163803508854 405.08194633149674 348.5097453543065 422.80693118168466 346.5953901578182C440.5319160318726 344.68103496132994 459.64957545895675 343.0575081076855 467.62595958102577 363.1027626756884C475.6023437030947 383.14801724369124 472.22711317301 424.3334545983546 461.09357496761567 442.812612084232 "></path><path d="M459.1727317995352 367.7149249706219C466.15206790634556 385.25452271762435 463.1987411925215 421.2917804029548 453.45689526280137 437.4610432030975C443.7150493330813 453.6303060032402 436.5438828014053 445.8832082725339 412.4118713368789 445.327386411307C388.2798598723526 444.77156455008 343.39075604726935 449.2873002724235 337.623240233075 434.79309826920803C331.8557244188807 420.29889626599254 367.57512007103 392.7389926816481 384.727795428746 375.75521679587257C401.88047078646196 358.771440910097 404.44672020619737 354.9460348144127 419.95608195011175 353.27097401748546C435.4654436940262 351.5959132205582 452.19339569272483 350.1753272236194 459.1727317995352 367.7149249706219C466.15206790634556 385.25452271762435 463.1987411925215 421.2917804029548 453.45689526280137 437.4610432030975 "></path><path d="M450.7194582416775 372.3270720067663C456.70174633322927 387.36101293276846 454.17032343566575 418.25009094876594 445.82016978161994 432.109459063174C437.4700161275742 445.968827177582 431.3233019575661 439.3284576941195 410.63872070225784 438.8520389559249C389.9541394469495 438.37562021773033 351.47776473973533 442.2462508368819 346.5341797561402 429.82264911984015C341.59059477254505 417.3990474027983 372.2072196172445 393.7762729019316 386.909512781001 379.218750714124C401.6118059447576 364.66122852631645 403.81144830453076 361.3823090157299 417.1051869421717 359.94654261836365C430.3989255798126 358.51077622099746 444.73717015012573 357.29313108076417 450.7194582416775 372.3270720067663C456.70174633322927 387.36101293276846 454.17032343566575 418.25009094876594 445.82016978161994 432.109459063174 "></path><path d="M442.2662152013979 376.93921904291074C447.25145527769104 389.4675031479125 445.14193619638814 415.20840149457706 438.18347481801663 426.7578749232505C431.2250134396451 438.3073483519238 426.10275163130507 432.77370711570507 408.86560058521485 432.3766915005429C391.62844953912463 431.9796758853808 359.56480394977945 435.20520140134045 355.4451497967835 424.85219997047227C351.3254956437876 414.4991985396041 376.83934968103705 394.8135531222151 389.0912606508342 382.68228463237546C401.3431716206313 370.55101614253584 403.17620692044227 367.81858321704703 414.25432245180974 366.62211121924184C425.3324379831772 365.42563922143665 437.2809751251048 364.41093493790896 442.2662152013979 376.93921904291074C447.25145527769104 389.4675031479125 445.14193619638814 415.20840149457706 438.18347481801663 426.7578749232505 "></path><path d="M433.81297216111835 381.5513813378442C437.8011642221528 391.5740086218456 436.1135489571105 412.1667272991773 430.54677985441333 421.406306042116C424.9800107517161 430.6458847850547 420.8822013050441 426.21897179607964 407.09248046817186 425.90135930394996C393.3027596312997 425.5837468118202 367.65184315982356 428.16416722458797 364.35611983742683 419.88176607989345C361.06039651503005 411.5993649351989 381.47147974482965 395.85084860128774 391.27300852066736 386.145833809416C401.07453729650507 376.4408190175443 402.54096553635384 374.25487267715323 411.40345796144777 373.2976950789091C420.26595038654176 372.34051748066497 429.82478010008384 371.52875405384276 433.81297216111835 381.5513813378442C437.8011642221528 391.5740086218456 436.1135489571105 412.1667272991773 430.54677985441333 421.406306042116 "></path><path d="M425.3597291208387 386.1635436327777C428.35087316661463 393.68051409577873 427.0851617178329 409.1250531037775 422.91008489080997 416.0547371609815C418.73500806378706 422.9844212181855 415.6616509787831 419.6642364764543 405.3193603511289 419.426027107357C394.97706972347476 419.1878177382597 375.73888236986767 421.1231330478355 373.2670898780701 414.9113321893146C370.7952973862725 408.69953133079366 386.10360980862225 396.88814408036035 393.4547563905005 389.6093829864565C400.8059029723788 382.33062189255276 401.9057241522654 380.6911621372595 408.55259347108586 379.97327893857636C415.1994627899063 379.25539573989323 422.36858507506287 378.6465731697766 425.3597291208387 386.1635436327777C428.35087316661463 393.68051409577873 427.0851617178329 409.1250531037775 422.91008489080997 416.0547371609815 "></path><path d="M416.90648608055915 390.7756906689221C418.9005821110764 395.78700431092284 418.05677447855527 406.08336364958865 415.27338992720667 410.703153021058C412.49000537585806 415.32294239252735 410.44110065252204 413.10948589803985 403.54624023408593 412.95067965197495C396.6513798156499 412.7918734059101 383.8259215799118 414.082083612294 382.1780599187134 409.9408830399467C380.530198257515 405.79968246759944 390.73573987241485 397.92542430064384 395.6365042603337 393.072916904708C400.5372686482525 388.22040950877215 401.2704827681769 387.1274363385766 405.7017289807239 386.64884753945455C410.13297519327085 386.1702587403325 414.91239005004195 385.7643770269214 416.90648608055915 390.7756906689221C418.9005821110764 395.78700431092284 418.05677447855527 406.08336364958865 415.27338992720667 410.703153021058 "></path><path d="M408.4532430402796 395.3878529638556C409.45029105553823 397.89350978485595 409.0283872392776 403.0416894541888 407.6366949636033 405.35158413992355C406.245002687929 407.6614788256582 405.220550326261 406.5547505784144 401.773120117043 406.475347455382C398.32568990782494 406.3959443323496 391.9129607899559 407.04104943554154 391.0890299593567 404.9704491493679C390.2650991287575 402.8998488631943 395.3678699362074 398.96271977971645 397.81825213016685 396.53646608174853C400.26863432412625 394.1102123837806 400.63524138408843 393.56372579868287 402.85086449036197 393.3244313991218C405.06648759663545 393.08513699956075 407.456195025021 392.8821961428552 408.4532430402796 395.3878529638556C409.45029105553823 397.89350978485595 409.0283872392776 403.0416894541888 407.6366949636033 405.35158413992355 "></path></g></svg>